<?xml version="1.0" encoding="utf-8"?>
<svg viewBox="0 0 48 48" xmlns="http://www.w3.org/2000/svg" xmlns:xlink="http://www.w3.org/1999/xlink">
  <defs>
    <path id="path-0" style="fill: none;" d="M 5.843971631205674 17.24822695035461 L 46.01195674132121 36.78940889581622"/>
  </defs>
  <rect width="48" height="48" fill="#f7df1e" transform="matrix(1, 0, 0, 1, 0, -1.7763568394002505e-15)"/>
  <path d="M 33.36 37.417 C 34.217 38.814 35.33 39.841 37.298 39.841 C 38.953 39.841 40.01 39.015 40.01 37.872 C 40.01 36.503 38.924 36.019 37.104 35.222 L 36.105 34.794 C 33.224 33.566 31.31 32.029 31.31 28.778 C 31.31 25.783 33.591 23.504 37.157 23.504 C 39.695 23.504 41.521 24.387 42.835 26.7 L 39.727 28.697 C 39.043 27.469 38.303 26.986 37.157 26.986 C 35.988 26.986 35.247 27.728 35.247 28.697 C 35.247 29.895 35.989 30.379 37.701 31.121 L 38.7 31.548 C 42.092 33.003 44.007 34.487 44.007 37.82 C 44.007 41.416 41.183 43.384 37.391 43.384 C 33.683 43.384 31.288 41.617 30.116 39.302 L 33.36 37.417 Z M 19.256 37.763 C 19.884 38.876 20.455 39.817 21.827 39.817 C 23.139 39.817 23.966 39.303 23.966 37.308 L 23.966 23.732 L 27.957 23.732 L 27.957 37.361 C 27.957 41.495 25.534 43.377 21.996 43.377 C 18.8 43.377 16.948 41.722 16.007 39.73 L 19.256 37.763 Z" transform="matrix(1, 0, 0, 1, 0, -1.7763568394002505e-15)"/>
  <rect x="29.136" y="4.766" width="18.383" height="6.014" style="fill-rule: nonzero; fill: rgb(136, 113, 207); stroke: rgb(136, 113, 207);" transform="matrix(0.9999989867210388, 0.0012340000830590725, 0, 1.0000009536743164, -0.018281001985066325, -0.047306005914208527)"/>
  <text style="fill: rgb(51, 51, 51); font-family: Arial, sans-serif; font-size: 28px; white-space: pre;" transform="matrix(1, 0, 0, 1, 0, -1.7763568394002505e-15)"><textPath xlink:href="#path-0"> </textPath></text>
  <text style="fill: rgb(51, 51, 51); font-family: Arial, sans-serif; font-size: 3.1px; font-style: italic; white-space: pre;" x="28.735" y="8.675" transform="matrix(1, 0, 0, 1, 0, -1.7763568394002505e-15)">Env Variables</text>
</svg>